<mxfile host="Electron" agent="Mozilla/5.0 (Windows NT 10.0; Win64; x64) AppleWebKit/537.36 (KHTML, like Gecko) draw.io/26.1.1 Chrome/132.0.6834.210 Electron/34.3.3 Safari/537.36" version="26.1.1" pages="2">
  <diagram name="Use Case Diagram UML" id="3wfbGJQbYTb2Qe25AoL8">
    <mxGraphModel dx="1434" dy="-356" grid="0" gridSize="10" guides="1" tooltips="1" connect="1" arrows="1" fold="1" page="0" pageScale="1" pageWidth="827" pageHeight="1169" math="0" shadow="0">
      <root>
        <mxCell id="0" />
        <mxCell id="1" parent="0" />
        <mxCell id="UhpiGU1zFeQN0CqzTbye-1" value="Словарь" style="rounded=0;whiteSpace=wrap;html=1;verticalAlign=top;" parent="1" vertex="1">
          <mxGeometry x="341.5" y="1237" width="1187" height="533" as="geometry" />
        </mxCell>
        <mxCell id="UhpiGU1zFeQN0CqzTbye-2" style="edgeStyle=none;rounded=0;orthogonalLoop=1;jettySize=auto;html=1;endArrow=block;endFill=0;" parent="1" source="UhpiGU1zFeQN0CqzTbye-3" target="UhpiGU1zFeQN0CqzTbye-8" edge="1">
          <mxGeometry relative="1" as="geometry" />
        </mxCell>
        <mxCell id="UhpiGU1zFeQN0CqzTbye-3" value="Ученик" style="shape=umlActor;verticalLabelPosition=bottom;verticalAlign=top;html=1;outlineConnect=0;" parent="1" vertex="1">
          <mxGeometry x="155" y="1374" width="30" height="60" as="geometry" />
        </mxCell>
        <mxCell id="UhpiGU1zFeQN0CqzTbye-4" style="rounded=0;orthogonalLoop=1;jettySize=auto;html=1;endArrow=block;endFill=0;" parent="1" source="UhpiGU1zFeQN0CqzTbye-5" target="UhpiGU1zFeQN0CqzTbye-8" edge="1">
          <mxGeometry relative="1" as="geometry" />
        </mxCell>
        <mxCell id="UhpiGU1zFeQN0CqzTbye-5" value="Преподаватель" style="shape=umlActor;verticalLabelPosition=bottom;verticalAlign=top;html=1;outlineConnect=0;" parent="1" vertex="1">
          <mxGeometry x="155" y="1544" width="30" height="60" as="geometry" />
        </mxCell>
        <mxCell id="UhpiGU1zFeQN0CqzTbye-6" style="edgeStyle=none;rounded=0;orthogonalLoop=1;jettySize=auto;html=1;entryX=0;entryY=0.5;entryDx=0;entryDy=0;endArrow=none;endFill=0;" parent="1" source="UhpiGU1zFeQN0CqzTbye-8" target="UhpiGU1zFeQN0CqzTbye-10" edge="1">
          <mxGeometry relative="1" as="geometry" />
        </mxCell>
        <mxCell id="UhpiGU1zFeQN0CqzTbye-7" style="edgeStyle=none;rounded=0;orthogonalLoop=1;jettySize=auto;html=1;entryX=0;entryY=0.5;entryDx=0;entryDy=0;endArrow=none;endFill=0;" parent="1" source="UhpiGU1zFeQN0CqzTbye-8" target="UhpiGU1zFeQN0CqzTbye-12" edge="1">
          <mxGeometry relative="1" as="geometry" />
        </mxCell>
        <mxCell id="UhpiGU1zFeQN0CqzTbye-8" value="Пользователь" style="shape=umlActor;verticalLabelPosition=bottom;verticalAlign=top;html=1;outlineConnect=0;" parent="1" vertex="1">
          <mxGeometry x="265" y="1454" width="30" height="60" as="geometry" />
        </mxCell>
        <mxCell id="UhpiGU1zFeQN0CqzTbye-9" style="edgeStyle=none;rounded=0;orthogonalLoop=1;jettySize=auto;html=1;dashed=1;endArrow=blockThin;endFill=1;" parent="1" target="UhpiGU1zFeQN0CqzTbye-26" edge="1">
          <mxGeometry relative="1" as="geometry">
            <mxPoint x="821" y="1325" as="sourcePoint" />
          </mxGeometry>
        </mxCell>
        <mxCell id="UhpiGU1zFeQN0CqzTbye-10" value="Найти слово в словаре" style="ellipse;whiteSpace=wrap;html=1;" parent="1" vertex="1">
          <mxGeometry x="700" y="1284" width="110" height="60" as="geometry" />
        </mxCell>
        <mxCell id="UhpiGU1zFeQN0CqzTbye-11" style="edgeStyle=none;rounded=0;orthogonalLoop=1;jettySize=auto;html=1;entryX=0.5;entryY=1;entryDx=0;entryDy=0;dashed=1;endArrow=blockThin;endFill=1;exitX=1;exitY=0;exitDx=0;exitDy=0;" parent="1" source="UhpiGU1zFeQN0CqzTbye-12" target="UhpiGU1zFeQN0CqzTbye-26" edge="1">
          <mxGeometry relative="1" as="geometry">
            <mxPoint x="840" y="1710" as="sourcePoint" />
          </mxGeometry>
        </mxCell>
        <mxCell id="UhpiGU1zFeQN0CqzTbye-12" value="Просмотреть &lt;br&gt;список слов в словаре пользователя" style="ellipse;whiteSpace=wrap;html=1;" parent="1" vertex="1">
          <mxGeometry x="690" y="1688" width="160" height="70" as="geometry" />
        </mxCell>
        <mxCell id="UhpiGU1zFeQN0CqzTbye-13" style="edgeStyle=none;rounded=0;orthogonalLoop=1;jettySize=auto;html=1;entryX=0.069;entryY=0.221;entryDx=0;entryDy=0;entryPerimeter=0;endArrow=blockThin;endFill=1;dashed=1;" parent="1" source="UhpiGU1zFeQN0CqzTbye-15" target="UhpiGU1zFeQN0CqzTbye-12" edge="1">
          <mxGeometry relative="1" as="geometry" />
        </mxCell>
        <mxCell id="UhpiGU1zFeQN0CqzTbye-14" style="edgeStyle=none;rounded=0;orthogonalLoop=1;jettySize=auto;html=1;entryX=0.091;entryY=0.758;entryDx=0;entryDy=0;entryPerimeter=0;dashed=1;fontSize=10;endArrow=blockThin;endFill=1;" parent="1" source="UhpiGU1zFeQN0CqzTbye-15" target="UhpiGU1zFeQN0CqzTbye-10" edge="1">
          <mxGeometry relative="1" as="geometry" />
        </mxCell>
        <mxCell id="UhpiGU1zFeQN0CqzTbye-15" value="Прослушать озвучку произношения" style="ellipse;whiteSpace=wrap;html=1;" parent="1" vertex="1">
          <mxGeometry x="417" y="1471" width="110" height="60" as="geometry" />
        </mxCell>
        <mxCell id="UhpiGU1zFeQN0CqzTbye-16" style="edgeStyle=none;rounded=0;orthogonalLoop=1;jettySize=auto;html=1;entryX=0.225;entryY=0.05;entryDx=0;entryDy=0;entryPerimeter=0;dashed=1;endArrow=blockThin;endFill=1;" parent="1" source="UhpiGU1zFeQN0CqzTbye-17" target="UhpiGU1zFeQN0CqzTbye-12" edge="1">
          <mxGeometry relative="1" as="geometry" />
        </mxCell>
        <mxCell id="UhpiGU1zFeQN0CqzTbye-17" value="Добавить карточку для изучения" style="ellipse;whiteSpace=wrap;html=1;" parent="1" vertex="1">
          <mxGeometry x="571" y="1532" width="110" height="60" as="geometry" />
        </mxCell>
        <mxCell id="UhpiGU1zFeQN0CqzTbye-18" style="edgeStyle=none;rounded=0;orthogonalLoop=1;jettySize=auto;html=1;dashed=1;endArrow=blockThin;endFill=1;" parent="1" source="UhpiGU1zFeQN0CqzTbye-19" target="UhpiGU1zFeQN0CqzTbye-10" edge="1">
          <mxGeometry relative="1" as="geometry" />
        </mxCell>
        <mxCell id="UhpiGU1zFeQN0CqzTbye-19" value="Добавить в словарь пользователя" style="ellipse;whiteSpace=wrap;html=1;" parent="1" vertex="1">
          <mxGeometry x="626" y="1418" width="110" height="60" as="geometry" />
        </mxCell>
        <mxCell id="UhpiGU1zFeQN0CqzTbye-20" style="edgeStyle=none;rounded=0;orthogonalLoop=1;jettySize=auto;html=1;dashed=1;endArrow=blockThin;endFill=1;entryX=1;entryY=1;entryDx=0;entryDy=0;" parent="1" source="UhpiGU1zFeQN0CqzTbye-23" target="UhpiGU1zFeQN0CqzTbye-10" edge="1">
          <mxGeometry relative="1" as="geometry">
            <mxPoint x="865.1369117642514" y="1344.8554612292785" as="targetPoint" />
          </mxGeometry>
        </mxCell>
        <mxCell id="UhpiGU1zFeQN0CqzTbye-21" style="edgeStyle=none;rounded=0;orthogonalLoop=1;jettySize=auto;html=1;dashed=1;endArrow=blockThin;endFill=1;" parent="1" source="UhpiGU1zFeQN0CqzTbye-23" target="UhpiGU1zFeQN0CqzTbye-12" edge="1">
          <mxGeometry relative="1" as="geometry">
            <mxPoint x="879" y="1688" as="targetPoint" />
          </mxGeometry>
        </mxCell>
        <mxCell id="UhpiGU1zFeQN0CqzTbye-22" style="edgeStyle=none;rounded=0;orthogonalLoop=1;jettySize=auto;html=1;entryX=0;entryY=0.5;entryDx=0;entryDy=0;dashed=1;endArrow=blockThin;endFill=1;" parent="1" source="UhpiGU1zFeQN0CqzTbye-23" target="UhpiGU1zFeQN0CqzTbye-26" edge="1">
          <mxGeometry relative="1" as="geometry" />
        </mxCell>
        <mxCell id="UhpiGU1zFeQN0CqzTbye-23" value="Просмотреть подробную информацию" style="ellipse;whiteSpace=wrap;html=1;" parent="1" vertex="1">
          <mxGeometry x="880" y="1428" width="110" height="60" as="geometry" />
        </mxCell>
        <mxCell id="UhpiGU1zFeQN0CqzTbye-24" style="edgeStyle=none;rounded=0;orthogonalLoop=1;jettySize=auto;html=1;dashed=1;endArrow=blockThin;endFill=1;entryX=0.379;entryY=0.024;entryDx=0;entryDy=0;entryPerimeter=0;" parent="1" source="UhpiGU1zFeQN0CqzTbye-25" target="UhpiGU1zFeQN0CqzTbye-12" edge="1">
          <mxGeometry relative="1" as="geometry">
            <mxPoint x="903" y="1697" as="targetPoint" />
          </mxGeometry>
        </mxCell>
        <mxCell id="UhpiGU1zFeQN0CqzTbye-25" value="Удалить карточку" style="ellipse;whiteSpace=wrap;html=1;" parent="1" vertex="1">
          <mxGeometry x="692" y="1531" width="110" height="61" as="geometry" />
        </mxCell>
        <mxCell id="IyOzpUKPmrpxjNrDnDSG-2" value="" style="edgeStyle=orthogonalEdgeStyle;rounded=0;orthogonalLoop=1;jettySize=auto;html=1;dashed=1;" edge="1" parent="1" source="IyOzpUKPmrpxjNrDnDSG-10" target="IyOzpUKPmrpxjNrDnDSG-1">
          <mxGeometry relative="1" as="geometry" />
        </mxCell>
        <mxCell id="UhpiGU1zFeQN0CqzTbye-26" value="Просмотреть перевод" style="ellipse;whiteSpace=wrap;html=1;" parent="1" vertex="1">
          <mxGeometry x="1069" y="1459" width="110" height="61" as="geometry" />
        </mxCell>
        <mxCell id="UhpiGU1zFeQN0CqzTbye-27" value="&lt;font style=&quot;font-size: 10px; background-color: rgb(255, 255, 255);&quot;&gt;&amp;lt;&amp;lt;extend&amp;gt;&amp;gt;&lt;/font&gt;" style="text;html=1;strokeColor=none;fillColor=none;align=center;verticalAlign=middle;whiteSpace=wrap;rounded=0;" parent="1" vertex="1">
          <mxGeometry x="692" y="1376" width="60" height="30" as="geometry" />
        </mxCell>
        <mxCell id="UhpiGU1zFeQN0CqzTbye-28" value="&lt;font style=&quot;font-size: 10px; background-color: rgb(255, 255, 255);&quot;&gt;&amp;lt;&amp;lt;extend&amp;gt;&amp;gt;&lt;/font&gt;" style="text;html=1;strokeColor=none;fillColor=none;align=center;verticalAlign=middle;whiteSpace=wrap;rounded=0;" parent="1" vertex="1">
          <mxGeometry x="609" y="1372" width="60" height="30" as="geometry" />
        </mxCell>
        <mxCell id="UhpiGU1zFeQN0CqzTbye-29" value="&lt;font style=&quot;font-size: 10px; background-color: rgb(255, 255, 255);&quot;&gt;&amp;lt;&amp;lt;extend&amp;gt;&amp;gt;&lt;/font&gt;" style="text;html=1;strokeColor=none;fillColor=none;align=center;verticalAlign=middle;whiteSpace=wrap;rounded=0;" parent="1" vertex="1">
          <mxGeometry x="614" y="1629" width="60" height="30" as="geometry" />
        </mxCell>
        <mxCell id="UhpiGU1zFeQN0CqzTbye-30" value="&lt;font style=&quot;font-size: 10px; background-color: rgb(255, 255, 255);&quot;&gt;&amp;lt;&amp;lt;extend&amp;gt;&amp;gt;&lt;/font&gt;" style="text;html=1;strokeColor=none;fillColor=none;align=center;verticalAlign=middle;whiteSpace=wrap;rounded=0;" parent="1" vertex="1">
          <mxGeometry x="676" y="1645" width="60" height="30" as="geometry" />
        </mxCell>
        <mxCell id="UhpiGU1zFeQN0CqzTbye-31" value="&lt;font style=&quot;font-size: 10px; background-color: rgb(255, 255, 255);&quot;&gt;&amp;lt;&amp;lt;extend&amp;gt;&amp;gt;&lt;/font&gt;" style="text;html=1;strokeColor=none;fillColor=none;align=center;verticalAlign=middle;whiteSpace=wrap;rounded=0;" parent="1" vertex="1">
          <mxGeometry x="833" y="1559" width="60" height="30" as="geometry" />
        </mxCell>
        <mxCell id="UhpiGU1zFeQN0CqzTbye-32" value="&lt;font style=&quot;font-size: 10px; background-color: rgb(255, 255, 255);&quot;&gt;&amp;lt;&amp;lt;extend&amp;gt;&amp;gt;&lt;/font&gt;" style="text;html=1;strokeColor=none;fillColor=none;align=center;verticalAlign=middle;whiteSpace=wrap;rounded=0;" parent="1" vertex="1">
          <mxGeometry x="765" y="1602" width="60" height="30" as="geometry" />
        </mxCell>
        <mxCell id="UhpiGU1zFeQN0CqzTbye-33" value="&lt;font style=&quot;font-size: 10px; background-color: rgb(255, 255, 255);&quot;&gt;&amp;lt;&amp;lt;extend&amp;gt;&amp;gt;&lt;/font&gt;" style="text;html=1;strokeColor=none;fillColor=none;align=center;verticalAlign=middle;whiteSpace=wrap;rounded=0;" parent="1" vertex="1">
          <mxGeometry x="844" y="1384.73" width="60" height="30" as="geometry" />
        </mxCell>
        <mxCell id="UhpiGU1zFeQN0CqzTbye-34" value="&lt;font style=&quot;font-size: 10px; background-color: rgb(255, 255, 255);&quot;&gt;&amp;lt;&amp;lt;include&amp;gt;&amp;gt;&lt;/font&gt;" style="text;html=1;strokeColor=none;fillColor=none;align=center;verticalAlign=middle;whiteSpace=wrap;rounded=0;" parent="1" vertex="1">
          <mxGeometry x="923" y="1384.73" width="60" height="30" as="geometry" />
        </mxCell>
        <mxCell id="UhpiGU1zFeQN0CqzTbye-35" value="&lt;font style=&quot;font-size: 10px; background-color: rgb(255, 255, 255);&quot;&gt;&amp;lt;&amp;lt;include&amp;gt;&amp;gt;&lt;/font&gt;" style="text;html=1;strokeColor=none;fillColor=none;align=center;verticalAlign=middle;whiteSpace=wrap;rounded=0;" parent="1" vertex="1">
          <mxGeometry x="949" y="1597.73" width="60" height="30" as="geometry" />
        </mxCell>
        <mxCell id="UhpiGU1zFeQN0CqzTbye-36" value="&lt;font style=&quot;font-size: 10px; background-color: rgb(255, 255, 255);&quot;&gt;&amp;lt;&amp;lt;include&amp;gt;&amp;gt;&lt;/font&gt;" style="text;html=1;strokeColor=none;fillColor=none;align=center;verticalAlign=middle;whiteSpace=wrap;rounded=0;" parent="1" vertex="1">
          <mxGeometry x="995" y="1462.73" width="60" height="30" as="geometry" />
        </mxCell>
        <mxCell id="UhpiGU1zFeQN0CqzTbye-37" style="edgeStyle=none;rounded=0;orthogonalLoop=1;jettySize=auto;html=1;entryX=0;entryY=0.5;entryDx=0;entryDy=0;dashed=1;exitX=1;exitY=0.5;exitDx=0;exitDy=0;startArrow=classic;startFill=1;endArrow=none;endFill=0;" parent="1" source="UhpiGU1zFeQN0CqzTbye-39" target="UhpiGU1zFeQN0CqzTbye-38" edge="1">
          <mxGeometry relative="1" as="geometry">
            <mxPoint x="812.9983335043903" y="1288.9613820220345" as="sourcePoint" />
          </mxGeometry>
        </mxCell>
        <mxCell id="UhpiGU1zFeQN0CqzTbye-38" value="Повторить слова" style="ellipse;whiteSpace=wrap;html=1;" parent="1" vertex="1">
          <mxGeometry x="1025" y="1683" width="110" height="61" as="geometry" />
        </mxCell>
        <mxCell id="UhpiGU1zFeQN0CqzTbye-40" style="edgeStyle=none;rounded=0;orthogonalLoop=1;jettySize=auto;html=1;dashed=1;startArrow=none;startFill=0;endArrow=classicThin;endFill=1;entryX=0.944;entryY=0.314;entryDx=0;entryDy=0;entryPerimeter=0;" parent="1" source="UhpiGU1zFeQN0CqzTbye-41" target="UhpiGU1zFeQN0CqzTbye-12" edge="1">
          <mxGeometry relative="1" as="geometry" />
        </mxCell>
        <mxCell id="UhpiGU1zFeQN0CqzTbye-41" value="Удалить слово" style="ellipse;whiteSpace=wrap;html=1;" parent="1" vertex="1">
          <mxGeometry x="1052" y="1566.73" width="110" height="61" as="geometry" />
        </mxCell>
        <mxCell id="UhpiGU1zFeQN0CqzTbye-42" value="&lt;font style=&quot;font-size: 10px; background-color: rgb(255, 255, 255);&quot;&gt;&amp;lt;&amp;lt;extend&amp;gt;&amp;gt;&lt;/font&gt;" style="text;html=1;strokeColor=none;fillColor=none;align=center;verticalAlign=middle;whiteSpace=wrap;rounded=0;" parent="1" vertex="1">
          <mxGeometry x="713" y="1615" width="60" height="30" as="geometry" />
        </mxCell>
        <mxCell id="UhpiGU1zFeQN0CqzTbye-44" style="edgeStyle=none;rounded=0;orthogonalLoop=1;jettySize=auto;html=1;dashed=1;endArrow=blockThin;endFill=1;entryX=0;entryY=0.5;entryDx=0;entryDy=0;exitX=0.5;exitY=0;exitDx=0;exitDy=0;" parent="1" source="UhpiGU1zFeQN0CqzTbye-38" target="UhpiGU1zFeQN0CqzTbye-46" edge="1">
          <mxGeometry relative="1" as="geometry">
            <mxPoint x="1137" y="1711" as="sourcePoint" />
            <mxPoint x="1128.9975888442523" y="1410.9962860491128" as="targetPoint" />
          </mxGeometry>
        </mxCell>
        <mxCell id="UhpiGU1zFeQN0CqzTbye-45" value="&lt;span style=&quot;font-size: 10px&quot;&gt;&amp;lt;&amp;lt;include&amp;gt;&amp;gt;&lt;/span&gt;" style="edgeLabel;html=1;align=center;verticalAlign=middle;resizable=0;points=[];fontSize=12;fontFamily=Helvetica;" parent="UhpiGU1zFeQN0CqzTbye-44" connectable="0" vertex="1">
          <mxGeometry x="0.0527" y="-4" relative="1" as="geometry">
            <mxPoint x="2" y="-5" as="offset" />
          </mxGeometry>
        </mxCell>
        <mxCell id="IyOzpUKPmrpxjNrDnDSG-3" value="&lt;span style=&quot;font-size: 10px&quot;&gt;&amp;lt;&amp;lt;include&amp;gt;&amp;gt;&lt;/span&gt;" style="edgeLabel;html=1;align=center;verticalAlign=middle;resizable=0;points=[];fontSize=12;fontFamily=Helvetica;" connectable="0" vertex="1" parent="UhpiGU1zFeQN0CqzTbye-44">
          <mxGeometry x="0.0527" y="-4" relative="1" as="geometry">
            <mxPoint x="-311" y="-164" as="offset" />
          </mxGeometry>
        </mxCell>
        <mxCell id="UhpiGU1zFeQN0CqzTbye-46" value="&lt;span id=&quot;docs-internal-guid-5a7e0937-7fff-e15c-72fa-4f4e6bc16532&quot;&gt;&lt;p dir=&quot;ltr&quot; style=&quot;line-height: 1.38 ; margin-top: 0pt ; margin-bottom: 0pt&quot;&gt;Повторить слова с прошлого урока&lt;/p&gt;&lt;/span&gt;" style="ellipse;whiteSpace=wrap;html=1;" parent="1" vertex="1">
          <mxGeometry x="1231" y="1585.5" width="120" height="63" as="geometry" />
        </mxCell>
        <mxCell id="UhpiGU1zFeQN0CqzTbye-48" value="&lt;span id=&quot;docs-internal-guid-5a7e0937-7fff-e15c-72fa-4f4e6bc16532&quot;&gt;&lt;p dir=&quot;ltr&quot; style=&quot;line-height: 1.38 ; margin-top: 0pt ; margin-bottom: 0pt&quot;&gt;Посмотреть прогресс&lt;/p&gt;&lt;/span&gt;" style="ellipse;whiteSpace=wrap;html=1;" parent="1" vertex="1">
          <mxGeometry x="1264" y="1681" width="120" height="63" as="geometry" />
        </mxCell>
        <mxCell id="UhpiGU1zFeQN0CqzTbye-49" style="edgeStyle=none;rounded=0;orthogonalLoop=1;jettySize=auto;html=1;dashed=1;endArrow=blockThin;endFill=1;entryX=0;entryY=0.5;entryDx=0;entryDy=0;" parent="1" source="UhpiGU1zFeQN0CqzTbye-38" target="UhpiGU1zFeQN0CqzTbye-48" edge="1">
          <mxGeometry relative="1" as="geometry">
            <mxPoint x="1186" y="1508" as="sourcePoint" />
            <mxPoint x="1223" y="1563" as="targetPoint" />
          </mxGeometry>
        </mxCell>
        <mxCell id="UhpiGU1zFeQN0CqzTbye-50" value="&lt;span style=&quot;font-size: 10px&quot;&gt;&amp;lt;&amp;lt;include&amp;gt;&amp;gt;&lt;/span&gt;" style="edgeLabel;html=1;align=center;verticalAlign=middle;resizable=0;points=[];fontSize=12;fontFamily=Helvetica;" parent="UhpiGU1zFeQN0CqzTbye-49" connectable="0" vertex="1">
          <mxGeometry x="0.0527" y="-4" relative="1" as="geometry">
            <mxPoint x="2" y="-5" as="offset" />
          </mxGeometry>
        </mxCell>
        <mxCell id="IyOzpUKPmrpxjNrDnDSG-1" value="Переключить перевод (RUS / ENG)" style="ellipse;whiteSpace=wrap;html=1;" vertex="1" parent="1">
          <mxGeometry x="952" y="1276" width="110" height="61" as="geometry" />
        </mxCell>
        <mxCell id="IyOzpUKPmrpxjNrDnDSG-4" value="" style="edgeStyle=none;rounded=0;orthogonalLoop=1;jettySize=auto;html=1;entryX=0;entryY=0.5;entryDx=0;entryDy=0;dashed=1;exitX=1;exitY=0.5;exitDx=0;exitDy=0;startArrow=classic;startFill=1;endArrow=none;endFill=0;" edge="1" parent="1" source="UhpiGU1zFeQN0CqzTbye-12" target="UhpiGU1zFeQN0CqzTbye-39">
          <mxGeometry relative="1" as="geometry">
            <mxPoint x="850" y="1723" as="sourcePoint" />
            <mxPoint x="1021" y="1712" as="targetPoint" />
          </mxGeometry>
        </mxCell>
        <mxCell id="UhpiGU1zFeQN0CqzTbye-39" value="&lt;font style=&quot;font-size: 10px; background-color: rgb(255, 255, 255);&quot;&gt;&amp;lt;&amp;lt;extend&amp;gt;&amp;gt;&lt;/font&gt;" style="text;html=1;strokeColor=none;fillColor=none;align=center;verticalAlign=middle;whiteSpace=wrap;rounded=0;" parent="1" vertex="1">
          <mxGeometry x="913" y="1703" width="60" height="30" as="geometry" />
        </mxCell>
        <mxCell id="IyOzpUKPmrpxjNrDnDSG-8" value="Добавить слова из прошлого урока" style="ellipse;whiteSpace=wrap;html=1;" vertex="1" parent="1">
          <mxGeometry x="456" y="1261" width="115" height="63" as="geometry" />
        </mxCell>
        <mxCell id="IyOzpUKPmrpxjNrDnDSG-9" value="&amp;lt;&amp;lt;include&amp;gt;&amp;gt;" style="endArrow=classic;html=1;rounded=0;exitX=0.036;exitY=0.367;exitDx=0;exitDy=0;exitPerimeter=0;entryX=1;entryY=0.5;entryDx=0;entryDy=0;dashed=1;" edge="1" parent="1" source="UhpiGU1zFeQN0CqzTbye-10" target="IyOzpUKPmrpxjNrDnDSG-8">
          <mxGeometry width="50" height="50" relative="1" as="geometry">
            <mxPoint x="804" y="1626" as="sourcePoint" />
            <mxPoint x="854" y="1576" as="targetPoint" />
            <Array as="points" />
          </mxGeometry>
        </mxCell>
        <mxCell id="IyOzpUKPmrpxjNrDnDSG-11" value="" style="edgeStyle=orthogonalEdgeStyle;rounded=0;orthogonalLoop=1;jettySize=auto;html=1;dashed=1;" edge="1" parent="1" source="UhpiGU1zFeQN0CqzTbye-10" target="IyOzpUKPmrpxjNrDnDSG-10">
          <mxGeometry relative="1" as="geometry">
            <mxPoint x="810" y="1314" as="sourcePoint" />
            <mxPoint x="952" y="1307" as="targetPoint" />
          </mxGeometry>
        </mxCell>
        <mxCell id="IyOzpUKPmrpxjNrDnDSG-10" value="&lt;font style=&quot;font-size: 10px; background-color: rgb(255, 255, 255);&quot;&gt;&amp;lt;&amp;lt;include&amp;gt;&amp;gt;&lt;/font&gt;" style="text;html=1;strokeColor=none;fillColor=none;align=center;verticalAlign=middle;whiteSpace=wrap;rounded=0;" vertex="1" parent="1">
          <mxGeometry x="850" y="1291.5" width="60" height="30" as="geometry" />
        </mxCell>
      </root>
    </mxGraphModel>
  </diagram>
  <diagram id="Jm0ogReIfAhDKfA0v8ij" name="Страница — 2">
    <mxGraphModel grid="1" page="1" gridSize="10" guides="1" tooltips="1" connect="1" arrows="1" fold="1" pageScale="1" pageWidth="827" pageHeight="1169" math="0" shadow="0">
      <root>
        <mxCell id="0" />
        <mxCell id="1" parent="0" />
        <mxCell id="l8kEoDiZLvOk8A_kF0R2-1" value="Словарь" style="rounded=0;whiteSpace=wrap;html=1;verticalAlign=top;" vertex="1" parent="1">
          <mxGeometry x="375" y="1243" width="820" height="533" as="geometry" />
        </mxCell>
        <mxCell id="l8kEoDiZLvOk8A_kF0R2-2" style="edgeStyle=none;rounded=0;orthogonalLoop=1;jettySize=auto;html=1;endArrow=block;endFill=0;" edge="1" parent="1" source="l8kEoDiZLvOk8A_kF0R2-3" target="l8kEoDiZLvOk8A_kF0R2-8">
          <mxGeometry relative="1" as="geometry" />
        </mxCell>
        <mxCell id="l8kEoDiZLvOk8A_kF0R2-3" value="Ученик" style="shape=umlActor;verticalLabelPosition=bottom;verticalAlign=top;html=1;outlineConnect=0;" vertex="1" parent="1">
          <mxGeometry x="155" y="1374" width="30" height="60" as="geometry" />
        </mxCell>
        <mxCell id="l8kEoDiZLvOk8A_kF0R2-4" style="rounded=0;orthogonalLoop=1;jettySize=auto;html=1;endArrow=block;endFill=0;" edge="1" parent="1" source="l8kEoDiZLvOk8A_kF0R2-5" target="l8kEoDiZLvOk8A_kF0R2-8">
          <mxGeometry relative="1" as="geometry" />
        </mxCell>
        <mxCell id="l8kEoDiZLvOk8A_kF0R2-5" value="Преподаватель" style="shape=umlActor;verticalLabelPosition=bottom;verticalAlign=top;html=1;outlineConnect=0;" vertex="1" parent="1">
          <mxGeometry x="155" y="1544" width="30" height="60" as="geometry" />
        </mxCell>
        <mxCell id="l8kEoDiZLvOk8A_kF0R2-6" style="edgeStyle=none;rounded=0;orthogonalLoop=1;jettySize=auto;html=1;entryX=0;entryY=0.5;entryDx=0;entryDy=0;endArrow=none;endFill=0;" edge="1" parent="1" source="l8kEoDiZLvOk8A_kF0R2-8" target="l8kEoDiZLvOk8A_kF0R2-10">
          <mxGeometry relative="1" as="geometry" />
        </mxCell>
        <mxCell id="l8kEoDiZLvOk8A_kF0R2-7" style="edgeStyle=none;rounded=0;orthogonalLoop=1;jettySize=auto;html=1;entryX=0;entryY=0.5;entryDx=0;entryDy=0;endArrow=none;endFill=0;" edge="1" parent="1" source="l8kEoDiZLvOk8A_kF0R2-8" target="l8kEoDiZLvOk8A_kF0R2-12">
          <mxGeometry relative="1" as="geometry" />
        </mxCell>
        <mxCell id="l8kEoDiZLvOk8A_kF0R2-8" value="Пользователь" style="shape=umlActor;verticalLabelPosition=bottom;verticalAlign=top;html=1;outlineConnect=0;" vertex="1" parent="1">
          <mxGeometry x="265" y="1454" width="30" height="60" as="geometry" />
        </mxCell>
        <mxCell id="l8kEoDiZLvOk8A_kF0R2-9" style="edgeStyle=none;rounded=0;orthogonalLoop=1;jettySize=auto;html=1;dashed=1;endArrow=blockThin;endFill=1;" edge="1" parent="1" target="l8kEoDiZLvOk8A_kF0R2-26">
          <mxGeometry relative="1" as="geometry">
            <mxPoint x="821" y="1325" as="sourcePoint" />
          </mxGeometry>
        </mxCell>
        <mxCell id="l8kEoDiZLvOk8A_kF0R2-10" value="Найти слово в словаре" style="ellipse;whiteSpace=wrap;html=1;" vertex="1" parent="1">
          <mxGeometry x="715" y="1288" width="110" height="60" as="geometry" />
        </mxCell>
        <mxCell id="l8kEoDiZLvOk8A_kF0R2-11" style="edgeStyle=none;rounded=0;orthogonalLoop=1;jettySize=auto;html=1;entryX=0.5;entryY=1;entryDx=0;entryDy=0;dashed=1;endArrow=blockThin;endFill=1;exitX=0.963;exitY=0.243;exitDx=0;exitDy=0;exitPerimeter=0;" edge="1" parent="1" source="l8kEoDiZLvOk8A_kF0R2-12" target="l8kEoDiZLvOk8A_kF0R2-26">
          <mxGeometry relative="1" as="geometry">
            <mxPoint x="840" y="1710" as="sourcePoint" />
          </mxGeometry>
        </mxCell>
        <mxCell id="l8kEoDiZLvOk8A_kF0R2-12" value="Просмотреть &lt;br&gt;список слов в словаре пользователя" style="ellipse;whiteSpace=wrap;html=1;" vertex="1" parent="1">
          <mxGeometry x="690" y="1688" width="160" height="70" as="geometry" />
        </mxCell>
        <mxCell id="l8kEoDiZLvOk8A_kF0R2-13" style="edgeStyle=none;rounded=0;orthogonalLoop=1;jettySize=auto;html=1;entryX=0.069;entryY=0.221;entryDx=0;entryDy=0;entryPerimeter=0;endArrow=blockThin;endFill=1;dashed=1;" edge="1" parent="1" source="l8kEoDiZLvOk8A_kF0R2-15" target="l8kEoDiZLvOk8A_kF0R2-12">
          <mxGeometry relative="1" as="geometry" />
        </mxCell>
        <mxCell id="l8kEoDiZLvOk8A_kF0R2-14" style="edgeStyle=none;rounded=0;orthogonalLoop=1;jettySize=auto;html=1;entryX=0.091;entryY=0.758;entryDx=0;entryDy=0;entryPerimeter=0;dashed=1;fontSize=10;endArrow=blockThin;endFill=1;" edge="1" parent="1" source="l8kEoDiZLvOk8A_kF0R2-15" target="l8kEoDiZLvOk8A_kF0R2-10">
          <mxGeometry relative="1" as="geometry" />
        </mxCell>
        <mxCell id="l8kEoDiZLvOk8A_kF0R2-15" value="Прослушать озвучку произношения" style="ellipse;whiteSpace=wrap;html=1;" vertex="1" parent="1">
          <mxGeometry x="417" y="1471" width="110" height="60" as="geometry" />
        </mxCell>
        <mxCell id="l8kEoDiZLvOk8A_kF0R2-16" style="edgeStyle=none;rounded=0;orthogonalLoop=1;jettySize=auto;html=1;entryX=0.225;entryY=0.05;entryDx=0;entryDy=0;entryPerimeter=0;dashed=1;endArrow=blockThin;endFill=1;" edge="1" parent="1" source="l8kEoDiZLvOk8A_kF0R2-17" target="l8kEoDiZLvOk8A_kF0R2-12">
          <mxGeometry relative="1" as="geometry" />
        </mxCell>
        <mxCell id="l8kEoDiZLvOk8A_kF0R2-17" value="Добавить карточку для изучения" style="ellipse;whiteSpace=wrap;html=1;" vertex="1" parent="1">
          <mxGeometry x="537" y="1500" width="110" height="60" as="geometry" />
        </mxCell>
        <mxCell id="l8kEoDiZLvOk8A_kF0R2-18" style="edgeStyle=none;rounded=0;orthogonalLoop=1;jettySize=auto;html=1;dashed=1;endArrow=blockThin;endFill=1;" edge="1" parent="1" source="l8kEoDiZLvOk8A_kF0R2-19" target="l8kEoDiZLvOk8A_kF0R2-10">
          <mxGeometry relative="1" as="geometry" />
        </mxCell>
        <mxCell id="l8kEoDiZLvOk8A_kF0R2-19" value="Добавить в словарь пользователя" style="ellipse;whiteSpace=wrap;html=1;" vertex="1" parent="1">
          <mxGeometry x="626" y="1418" width="110" height="60" as="geometry" />
        </mxCell>
        <mxCell id="l8kEoDiZLvOk8A_kF0R2-20" style="edgeStyle=none;rounded=0;orthogonalLoop=1;jettySize=auto;html=1;dashed=1;endArrow=blockThin;endFill=1;entryX=1;entryY=1;entryDx=0;entryDy=0;" edge="1" parent="1" source="l8kEoDiZLvOk8A_kF0R2-23" target="l8kEoDiZLvOk8A_kF0R2-10">
          <mxGeometry relative="1" as="geometry">
            <mxPoint x="865.1369117642514" y="1344.8554612292785" as="targetPoint" />
          </mxGeometry>
        </mxCell>
        <mxCell id="l8kEoDiZLvOk8A_kF0R2-21" style="edgeStyle=none;rounded=0;orthogonalLoop=1;jettySize=auto;html=1;dashed=1;endArrow=blockThin;endFill=1;entryX=1;entryY=0;entryDx=0;entryDy=0;" edge="1" parent="1" source="l8kEoDiZLvOk8A_kF0R2-23" target="l8kEoDiZLvOk8A_kF0R2-12">
          <mxGeometry relative="1" as="geometry">
            <mxPoint x="879" y="1688" as="targetPoint" />
          </mxGeometry>
        </mxCell>
        <mxCell id="l8kEoDiZLvOk8A_kF0R2-22" style="edgeStyle=none;rounded=0;orthogonalLoop=1;jettySize=auto;html=1;entryX=0;entryY=0.5;entryDx=0;entryDy=0;dashed=1;endArrow=blockThin;endFill=1;" edge="1" parent="1" source="l8kEoDiZLvOk8A_kF0R2-23" target="l8kEoDiZLvOk8A_kF0R2-26">
          <mxGeometry relative="1" as="geometry" />
        </mxCell>
        <mxCell id="l8kEoDiZLvOk8A_kF0R2-23" value="Просмотреть подробную информацию" style="ellipse;whiteSpace=wrap;html=1;" vertex="1" parent="1">
          <mxGeometry x="880" y="1428" width="110" height="60" as="geometry" />
        </mxCell>
        <mxCell id="l8kEoDiZLvOk8A_kF0R2-24" style="edgeStyle=none;rounded=0;orthogonalLoop=1;jettySize=auto;html=1;dashed=1;endArrow=blockThin;endFill=1;entryX=0.379;entryY=0.024;entryDx=0;entryDy=0;entryPerimeter=0;" edge="1" parent="1" source="l8kEoDiZLvOk8A_kF0R2-25" target="l8kEoDiZLvOk8A_kF0R2-12">
          <mxGeometry relative="1" as="geometry">
            <mxPoint x="903" y="1697" as="targetPoint" />
          </mxGeometry>
        </mxCell>
        <mxCell id="l8kEoDiZLvOk8A_kF0R2-25" value="Удалить карточку" style="ellipse;whiteSpace=wrap;html=1;" vertex="1" parent="1">
          <mxGeometry x="659" y="1518" width="110" height="61" as="geometry" />
        </mxCell>
        <mxCell id="l8kEoDiZLvOk8A_kF0R2-26" value="Просмотреть перевод" style="ellipse;whiteSpace=wrap;html=1;" vertex="1" parent="1">
          <mxGeometry x="1069" y="1454" width="110" height="61" as="geometry" />
        </mxCell>
        <mxCell id="l8kEoDiZLvOk8A_kF0R2-27" value="&lt;font style=&quot;font-size: 10px; background-color: rgb(255, 255, 255);&quot;&gt;&amp;lt;&amp;lt;extend&amp;gt;&amp;gt;&lt;/font&gt;" style="text;html=1;strokeColor=none;fillColor=none;align=center;verticalAlign=middle;whiteSpace=wrap;rounded=0;" vertex="1" parent="1">
          <mxGeometry x="692" y="1376" width="60" height="30" as="geometry" />
        </mxCell>
        <mxCell id="l8kEoDiZLvOk8A_kF0R2-28" value="&lt;font style=&quot;font-size: 10px; background-color: rgb(255, 255, 255);&quot;&gt;&amp;lt;&amp;lt;extend&amp;gt;&amp;gt;&lt;/font&gt;" style="text;html=1;strokeColor=none;fillColor=none;align=center;verticalAlign=middle;whiteSpace=wrap;rounded=0;" vertex="1" parent="1">
          <mxGeometry x="609" y="1372" width="60" height="30" as="geometry" />
        </mxCell>
        <mxCell id="l8kEoDiZLvOk8A_kF0R2-29" value="&lt;font style=&quot;font-size: 10px; background-color: rgb(255, 255, 255);&quot;&gt;&amp;lt;&amp;lt;extend&amp;gt;&amp;gt;&lt;/font&gt;" style="text;html=1;strokeColor=none;fillColor=none;align=center;verticalAlign=middle;whiteSpace=wrap;rounded=0;" vertex="1" parent="1">
          <mxGeometry x="614" y="1629" width="60" height="30" as="geometry" />
        </mxCell>
        <mxCell id="l8kEoDiZLvOk8A_kF0R2-30" value="&lt;font style=&quot;font-size: 10px; background-color: rgb(255, 255, 255);&quot;&gt;&amp;lt;&amp;lt;extend&amp;gt;&amp;gt;&lt;/font&gt;" style="text;html=1;strokeColor=none;fillColor=none;align=center;verticalAlign=middle;whiteSpace=wrap;rounded=0;" vertex="1" parent="1">
          <mxGeometry x="676" y="1645" width="60" height="30" as="geometry" />
        </mxCell>
        <mxCell id="l8kEoDiZLvOk8A_kF0R2-31" value="&lt;font style=&quot;font-size: 10px; background-color: rgb(255, 255, 255);&quot;&gt;&amp;lt;&amp;lt;extend&amp;gt;&amp;gt;&lt;/font&gt;" style="text;html=1;strokeColor=none;fillColor=none;align=center;verticalAlign=middle;whiteSpace=wrap;rounded=0;" vertex="1" parent="1">
          <mxGeometry x="857" y="1567.73" width="60" height="30" as="geometry" />
        </mxCell>
        <mxCell id="l8kEoDiZLvOk8A_kF0R2-32" value="&lt;font style=&quot;font-size: 10px; background-color: rgb(255, 255, 255);&quot;&gt;&amp;lt;&amp;lt;extend&amp;gt;&amp;gt;&lt;/font&gt;" style="text;html=1;strokeColor=none;fillColor=none;align=center;verticalAlign=middle;whiteSpace=wrap;rounded=0;" vertex="1" parent="1">
          <mxGeometry x="765" y="1602" width="60" height="30" as="geometry" />
        </mxCell>
        <mxCell id="l8kEoDiZLvOk8A_kF0R2-33" value="&lt;font style=&quot;font-size: 10px; background-color: rgb(255, 255, 255);&quot;&gt;&amp;lt;&amp;lt;extend&amp;gt;&amp;gt;&lt;/font&gt;" style="text;html=1;strokeColor=none;fillColor=none;align=center;verticalAlign=middle;whiteSpace=wrap;rounded=0;" vertex="1" parent="1">
          <mxGeometry x="844" y="1384.73" width="60" height="30" as="geometry" />
        </mxCell>
        <mxCell id="l8kEoDiZLvOk8A_kF0R2-34" value="&lt;font style=&quot;font-size: 10px; background-color: rgb(255, 255, 255);&quot;&gt;&amp;lt;&amp;lt;include&amp;gt;&amp;gt;&lt;/font&gt;" style="text;html=1;strokeColor=none;fillColor=none;align=center;verticalAlign=middle;whiteSpace=wrap;rounded=0;" vertex="1" parent="1">
          <mxGeometry x="923" y="1384.73" width="60" height="30" as="geometry" />
        </mxCell>
        <mxCell id="l8kEoDiZLvOk8A_kF0R2-35" value="&lt;font style=&quot;font-size: 10px; background-color: rgb(255, 255, 255);&quot;&gt;&amp;lt;&amp;lt;include&amp;gt;&amp;gt;&lt;/font&gt;" style="text;html=1;strokeColor=none;fillColor=none;align=center;verticalAlign=middle;whiteSpace=wrap;rounded=0;" vertex="1" parent="1">
          <mxGeometry x="1004" y="1572" width="60" height="30" as="geometry" />
        </mxCell>
        <mxCell id="l8kEoDiZLvOk8A_kF0R2-36" value="&lt;font style=&quot;font-size: 10px; background-color: rgb(255, 255, 255);&quot;&gt;&amp;lt;&amp;lt;include&amp;gt;&amp;gt;&lt;/font&gt;" style="text;html=1;strokeColor=none;fillColor=none;align=center;verticalAlign=middle;whiteSpace=wrap;rounded=0;" vertex="1" parent="1">
          <mxGeometry x="995" y="1462.73" width="60" height="30" as="geometry" />
        </mxCell>
        <mxCell id="l8kEoDiZLvOk8A_kF0R2-37" style="edgeStyle=none;rounded=0;orthogonalLoop=1;jettySize=auto;html=1;entryX=0;entryY=1;entryDx=0;entryDy=0;dashed=1;exitX=1;exitY=0.5;exitDx=0;exitDy=0;startArrow=classic;startFill=1;endArrow=none;endFill=0;" edge="1" parent="1" source="l8kEoDiZLvOk8A_kF0R2-12" target="l8kEoDiZLvOk8A_kF0R2-38">
          <mxGeometry relative="1" as="geometry">
            <mxPoint x="812.9983335043903" y="1288.9613820220345" as="sourcePoint" />
          </mxGeometry>
        </mxCell>
        <mxCell id="l8kEoDiZLvOk8A_kF0R2-38" value="Проверить знания" style="ellipse;whiteSpace=wrap;html=1;" vertex="1" parent="1">
          <mxGeometry x="1021" y="1607" width="110" height="61" as="geometry" />
        </mxCell>
        <mxCell id="l8kEoDiZLvOk8A_kF0R2-39" value="&lt;font style=&quot;font-size: 10px; background-color: rgb(255, 255, 255);&quot;&gt;&amp;lt;&amp;lt;extend&amp;gt;&amp;gt;&lt;/font&gt;" style="text;html=1;strokeColor=none;fillColor=none;align=center;verticalAlign=middle;whiteSpace=wrap;rounded=0;" vertex="1" parent="1">
          <mxGeometry x="902" y="1683" width="60" height="30" as="geometry" />
        </mxCell>
        <mxCell id="l8kEoDiZLvOk8A_kF0R2-40" style="edgeStyle=none;rounded=0;orthogonalLoop=1;jettySize=auto;html=1;entryX=0.621;entryY=0.043;entryDx=0;entryDy=0;entryPerimeter=0;dashed=1;startArrow=none;startFill=0;endArrow=classicThin;endFill=1;" edge="1" parent="1" source="l8kEoDiZLvOk8A_kF0R2-41" target="l8kEoDiZLvOk8A_kF0R2-12">
          <mxGeometry relative="1" as="geometry" />
        </mxCell>
        <mxCell id="l8kEoDiZLvOk8A_kF0R2-41" value="Удалить слово" style="ellipse;whiteSpace=wrap;html=1;" vertex="1" parent="1">
          <mxGeometry x="766" y="1467" width="110" height="61" as="geometry" />
        </mxCell>
        <mxCell id="l8kEoDiZLvOk8A_kF0R2-42" value="&lt;font style=&quot;font-size: 10px; background-color: rgb(255, 255, 255);&quot;&gt;&amp;lt;&amp;lt;extend&amp;gt;&amp;gt;&lt;/font&gt;" style="text;html=1;strokeColor=none;fillColor=none;align=center;verticalAlign=middle;whiteSpace=wrap;rounded=0;" vertex="1" parent="1">
          <mxGeometry x="702" y="1615" width="60" height="30" as="geometry" />
        </mxCell>
      </root>
    </mxGraphModel>
  </diagram>
</mxfile>
